# xmcd CD database file
# Copyright (C) 1996 Ti Kan
#
# Track frame offsets:
#	150
#	18012
#	30982
#	44725
#	54250
#	69447
#	80562
#	94297
#	109697
#	123627
#	138787
#	153375
#	168810
# Disc length: 2430 seconds
#
# Revision: 1
# Processed by: cddbd v1.4PL0 Copyright (c) Steve Scherf et al.
# Submitted via: CDCOPY 4.900
#
DISCID=9d097c0d
DTITLE=Various Artist - Sugar Plums (Holiday Treats From Sugar Hill)
DYEAR=1900
DGENRE=
TTITLE0=Tim O'Brien - Making Plans
TTITLE1=Peter Rowan - Christmas Time's A-Coming
TTITLE2=Doyle Lawson and Quicksilver - The First Noel and It Came Upon a Midnight C
TTITLE2=lear and Joy to the World
TTITLE3=Doc Watson - Christmas Lullaby
TTITLE4=John Starling - Beautiful Star of Bethlehem
TTITLE5=Ranch Romance -  Santa Bring My Baby Back (to me)
TTITLE6=Dan Crary - What Child Is This?
TTITLE7=Tim and Mollie O'Brien - Christ Was Born in Bethlhem
TTITLE8=Seldom Scene - Silent Night
TTITLE9=Robin and Linda Williams - Nothing But a Child
TTITLE10=Bluegrass Cardinals - The Carpenter Shop
TTITLE11=Jerry Douglas - Away in a Manger
TTITLE12=Red Knuckles and the Trailblazers - That White Christmas Song
EXTD=
EXTT0=
EXTT1=
EXTT2=
EXTT3=
EXTT4=
EXTT5=
EXTT6=
EXTT7=
EXTT8=
EXTT9=
EXTT10=
EXTT11=
EXTT12=
PLAYORDER=
